#!OML:ASF H:\ManfredETheater\Project 1\Capture day 1\Session 1\subject.ASF
:FULLY-SPECIFIED
:DEGREES
213
root 20.0708 17.0991 -39.3964 -183.77 26.2864 -172.634
lowerback 8.53644 -0.719525 4.09463
upperback -1.46556 -0.0988995 3.92697
thorax -6.3499 -0.0467306 1.82301
lowerneck -17.7331 -1.47358 -1.67259
upperneck 22.572 -0.343004 -3.03016
head 10.1397 -0.485499 -0.805192
rclavicle -6.72886e-014 1.35174e-014
rhumerus -33.7136 2.70858 -81.2193
rradius 89.2661
rwrist -7.96721
rhand -26.3198 8.71334
rfingers 7.12502
rthumb 0.236846 -21.2663
lclavicle -6.72886e-014 1.35174e-014
lhumerus -37.7814 -1.44125 90.14
lradius 42.2436
lwrist -14.3011
lhand -21.9262 -8.07864
lfingers 7.12502
lthumb 4.48004 21.854
rfemur -17.2583 -7.25974 26.8298
rtibia 44.866
rfoot -13.4073 -20.4258
rtoes -17.4005
lfemur -26.928 -5.69409 -16.2871
ltibia 71.6842
lfoot -17.5351 -5.30652
ltoes -5.29094
214
root 20.1507 17.1501 -39.5107 -183.473 25.7717 -172.489
lowerback 8.3895 -0.685342 4.27281
upperback -1.52096 -0.0454992 3.87307
thorax -6.32563 -0.0285481 1.65786
lowerneck -17.7707 -1.4715 -1.6634
upperneck 22.6156 -0.362256 -2.9371
head 10.1621 -0.482385 -0.777083
rclavicle -1.19072e-013 2.8625e-014
rhumerus -33.0569 2.90019 -81.1963
rradius 89.7536
rwrist -8.18525
rhand -26.5692 8.45421
rfingers 7.12502
rthumb -0.00402923 -21.5255
lclavicle -1.19072e-013 2.8625e-014
lhumerus -37.8733 0.560421 88.5631
lradius 39.8788
lwrist -16.1341
lhand -21.4074 -7.42885
lfingers 7.12502
lthumb 4.98097 22.4926
rfemur -16.571 -7.23412 27.0394
rtibia 44.1034
rfoot -13.4775 -20.9659
rtoes -17.4736
lfemur -27.4987 -5.83439 -16.1946
ltibia 69.5354
lfoot -18.0991 -4.48797
ltoes -5.94057
215
root 20.229 17.2005 -39.625 -183.167 25.2993 -172.348
lowerback 8.23636 -0.63937 4.42982
upperback -1.57557 0.0208649 3.82472
thorax -6.29637 -0.00303228 1.50885
lowerneck -17.8155 -1.46512 -1.6548
upperneck 22.6576 -0.374123 -2.84921
head 10.1854 -0.476618 -0.749709
rclavicle 4.09993e-014 2.78299e-014
rhumerus -32.3981 3.15558 -81.1303
rradius 90.2174
rwrist -8.38163
rhand -26.8084 8.17203
rfingers 7.12502
rthumb -0.23502 -21.8076
lclavicle 4.09993e-014 2.78299e-014
lhumerus -38.007 2.79392 86.8147
lradius 37.6741
lwrist -17.6985
lhand -20.8385 -6.50617
lfingers 7.12502
lthumb 5.53028 23.4017
rfemur -15.9001 -7.21152 27.2529
rtibia 43.324
rfoot -13.4643 -21.4739
rtoes -17.7366
lfemur -28.004 -5.9295 -16.0751
ltibia 67.261
lfoot -18.5584 -3.67141
ltoes -6.47215
216
root 20.3056 17.251 -39.7397 -182.877 24.8696 -172.233
lowerback 8.08647 -0.577789 4.55286
upperback -1.62955 0.103343 3.77277
thorax -6.26748 0.0312527 1.37331
lowerneck -17.8552 -1.45994 -1.6478
upperneck 22.7017 -0.385287 -2.76721
head 10.2085 -0.471099 -0.723966
rclavicle 4.29375e-014 2.22639e-014
rhumerus -31.7701 3.45479 -81.0188
rradius 90.6687
rwrist -8.54658
rhand -27.0255 7.88684
rfingers 7.12502
rthumb -0.444671 -22.0924
lclavicle 4.29375e-014 2.22639e-014
lhumerus -38.2139 5.19965 84.9032
lradius 35.6438
lwrist -18.9769
lhand -20.2381 -5.29261
lfingers 7.12502
lthumb 6.10994 24.5993
rfemur -15.2224 -7.20319 27.4404
rtibia 42.5235
rfoot -13.3576 -21.9382
rtoes -18.2131
lfemur -28.4155 -5.99189 -15.959
ltibia 64.866
lfoot -18.8796 -2.88093
ltoes -6.83794
